<svg width="434" height="236" viewBox="0 0 434 236" fill="none" xmlns="http://www.w3.org/2000/svg">
<path d="M103.785 181.5C111.118 187.667 126.385 199.9 128.785 199.5" stroke="#4A5449"/>
<path d="M102.285 175C109.285 180.667 124.685 192.1 128.285 192.5" stroke="#4A5449"/>
<path d="M101.285 165.5C108.785 172.333 125.785 185 127.785 186" stroke="#4A5449"/>
<path d="M101.285 156.5C108.285 163.333 123.285 177.7 126.885 178.5" stroke="#4A5449"/>
<path d="M106.785 132.5L125.785 154" stroke="#4A5449"/>
<path d="M109.785 127L125.285 145.5" stroke="#4A5449"/>
<path d="M122.285 109.5C122.951 111.333 124.485 115.1 125.285 115.5" stroke="#4A5449"/>
<path d="M125.285 140.5C129.618 135.333 138.785 123.8 138.785 121" stroke="#4A5449"/>
<path d="M131.285 229C127.785 191.833 121.985 115.5 126.785 105.5" stroke="#4A5449"/>
<path d="M130.785 229.5C107.618 205 79.2847 149.5 126.785 105C147.618 127.833 177.585 184.7 130.785 229.5Z" stroke="#4A5449"/>
<path d="M130.285 219C133.618 217 143.185 207.5 154.785 185.5" stroke="#4A5449"/>
<path d="M129.785 211.5C135.285 206.333 148.285 192.3 155.485 177.5" stroke="#4A5449"/>
<path d="M129.285 204.5C132.785 201 143.185 188.8 155.585 170" stroke="#4A5449"/>
<path d="M128.585 197C135.751 190.167 151.185 173.8 154.785 163" stroke="#4A5449"/>
<path d="M128.285 192C136.451 182.833 153.335 162.2 153.735 157" stroke="#4A5449"/>
<path d="M127.485 185C134.818 176.5 149.985 157.6 151.985 150" stroke="#4A5449"/>
<path d="M127.285 178C134.27 169.242 148.863 149.682 149.885 143.5" stroke="#4A5449"/>
<path d="M126.285 166.5C133.118 158.667 147.285 141.6 147.685 138" stroke="#4A5449"/>
<path d="M125.985 160C131.818 153.833 144.085 138.9 145.285 132.5" stroke="#4A5449"/>
<path d="M125.685 154C131.518 147.667 143.185 133.7 143.185 128.5" stroke="#4A5449"/>
<path d="M125.285 146.5C129.951 141.167 139.985 129.3 140.785 124.5" stroke="#4A5449"/>
<path d="M125.085 131C128.251 128.333 134.885 121.8 136.085 117" stroke="#4A5449"/>
<path d="M124.885 126C127.718 122.5 133.285 114.9 132.885 112.5" stroke="#4A5449"/>
<path d="M125.285 116C126.951 114 130.185 109.7 129.785 108.5" stroke="#4A5449"/>
<path d="M118.285 114C120.118 116.5 124.485 121.4 125.285 121" stroke="#4A5449"/>
<path d="M115.285 118C118.285 121.667 124.385 129 124.785 129" stroke="#4A5449"/>
<path d="M111.785 123C115.618 127.333 123.685 136 125.285 136" stroke="#4A5449"/>
<path d="M104.785 137.5C110.951 145 123.885 160 126.285 160" stroke="#4A5449"/>
<path d="M102.285 146C108.785 153 122.685 167.2 126.285 168" stroke="#4A5449"/>
<path d="M101.285 152C108.118 158.667 123.185 172.5 126.785 172.5" stroke="#4A5449"/>
<path d="M105.785 188C113.451 194 128.885 206 129.285 206" stroke="#4A5449"/>
<path d="M108.285 194.5L129.785 212.5" stroke="#4A5449"/>
<path d="M113.735 206C119.068 212.5 128.735 223.1 130.735 223.5" stroke="#4A5449"/>
<path d="M41.7847 184.5C49.1181 190.667 64.3847 202.9 66.7847 202.5" stroke="#4A5449"/>
<path d="M40.2847 178C47.2847 183.667 62.6847 195.1 66.2847 195.5" stroke="#4A5449"/>
<path d="M39.2847 168.5C46.7847 175.333 63.7847 188 65.7847 189" stroke="#4A5449"/>
<path d="M39.2847 159.5C46.2847 166.333 61.2848 180.7 64.8848 181.5" stroke="#4A5449"/>
<path d="M44.7847 135.5L63.7847 157" stroke="#4A5449"/>
<path d="M47.7847 130L63.2847 148.5" stroke="#4A5449"/>
<path d="M60.2847 112.5C60.9514 114.333 62.4847 118.1 63.2847 118.5" stroke="#4A5449"/>
<path d="M63.2847 143.5C67.6181 138.333 76.7847 126.8 76.7847 124" stroke="#4A5449"/>
<path d="M69.2847 232C65.7847 194.833 59.9847 118.5 64.7847 108.5" stroke="#4A5449"/>
<path d="M68.7847 232.5C45.6181 208 17.2847 152.5 64.7847 108C85.6181 130.833 115.585 187.7 68.7847 232.5Z" stroke="#4A5449"/>
<path d="M68.2847 222C71.6181 220 81.1847 210.5 92.7847 188.5" stroke="#4A5449"/>
<path d="M67.7847 214.5C73.2847 209.333 86.2848 195.3 93.4848 180.5" stroke="#4A5449"/>
<path d="M67.2847 207.5C70.7847 204 81.1847 191.8 93.5847 173" stroke="#4A5449"/>
<path d="M66.5847 200C73.7514 193.167 89.1847 176.8 92.7847 166" stroke="#4A5449"/>
<path d="M66.2847 195C74.4514 185.833 91.3347 165.2 91.7347 160" stroke="#4A5449"/>
<path d="M65.4848 188C72.8181 179.5 87.9848 160.6 89.9848 153" stroke="#4A5449"/>
<path d="M65.2847 181C72.2699 172.242 86.8625 152.682 87.8848 146.5" stroke="#4A5449"/>
<path d="M64.2847 169.5C71.1181 161.667 85.2847 144.6 85.6847 141" stroke="#4A5449"/>
<path d="M63.9848 163C69.8181 156.833 82.0848 141.9 83.2848 135.5" stroke="#4A5449"/>
<path d="M63.6847 157C69.5181 150.667 81.1847 136.7 81.1847 131.5" stroke="#4A5449"/>
<path d="M63.2847 149.5C67.9514 144.167 77.9847 132.3 78.7847 127.5" stroke="#4A5449"/>
<path d="M63.0847 134C66.2514 131.333 72.8847 124.8 74.0847 120" stroke="#4A5449"/>
<path d="M62.8848 129C65.7181 125.5 71.2848 117.9 70.8848 115.5" stroke="#4A5449"/>
<path d="M63.2847 119C64.9514 117 68.1847 112.7 67.7847 111.5" stroke="#4A5449"/>
<path d="M56.2847 117C58.1181 119.5 62.4847 124.4 63.2847 124" stroke="#4A5449"/>
<path d="M53.2847 121C56.2847 124.667 62.3847 132 62.7847 132" stroke="#4A5449"/>
<path d="M49.7847 126C53.6181 130.333 61.6847 139 63.2847 139" stroke="#4A5449"/>
<path d="M42.7847 140.5C48.9514 148 61.8847 163 64.2847 163" stroke="#4A5449"/>
<path d="M40.2847 149C46.7847 156 60.6847 170.2 64.2847 171" stroke="#4A5449"/>
<path d="M39.2847 155C46.1181 161.667 61.1847 175.5 64.7847 175.5" stroke="#4A5449"/>
<path d="M43.7847 191C51.4514 197 66.8847 209 67.2847 209" stroke="#4A5449"/>
<path d="M46.2847 197.5L67.7847 215.5" stroke="#4A5449"/>
<path d="M51.7347 209C57.0681 215.5 66.7347 226.1 68.7347 226.5" stroke="#4A5449"/>
<path d="M3.78474 86.5C11.1181 92.6667 26.3847 104.9 28.7847 104.5" stroke="#4A5449"/>
<path d="M2.28474 80C9.28474 85.6667 24.6847 97.1 28.2847 97.5" stroke="#4A5449"/>
<path d="M1.28474 70.5C8.78474 77.3333 25.7847 90 27.7847 91" stroke="#4A5449"/>
<path d="M1.28474 61.5C8.28474 68.3333 23.2848 82.7 26.8848 83.5" stroke="#4A5449"/>
<path d="M6.78474 37.5L25.7847 59" stroke="#4A5449"/>
<path d="M9.78474 32L25.2847 50.5" stroke="#4A5449"/>
<path d="M22.2847 14.5C22.9514 16.3333 24.4847 20.1 25.2847 20.5" stroke="#4A5449"/>
<path d="M25.2847 45.5C29.6181 40.3333 38.7847 28.8 38.7847 26" stroke="#4A5449"/>
<path d="M31.2847 134C27.7847 96.8333 21.9847 20.5 26.7847 10.5" stroke="#4A5449"/>
<path d="M30.7847 134.5C7.61807 110 -20.7153 54.5 26.7847 10C47.6181 32.8333 77.5847 89.7 30.7847 134.5Z" stroke="#4A5449"/>
<path d="M30.2847 124C33.6181 122 43.1847 112.5 54.7847 90.5" stroke="#4A5449"/>
<path d="M29.7847 116.5C35.2847 111.333 48.2848 97.3 55.4848 82.5" stroke="#4A5449"/>
<path d="M29.2847 109.5C32.7847 106 43.1847 93.8 55.5847 75" stroke="#4A5449"/>
<path d="M28.5847 102C35.7514 95.1667 51.1847 78.8 54.7847 68" stroke="#4A5449"/>
<path d="M28.2847 97C36.4514 87.8333 53.3347 67.2 53.7347 62" stroke="#4A5449"/>
<path d="M27.4848 90C34.8181 81.5 49.9848 62.6 51.9848 55" stroke="#4A5449"/>
<path d="M27.2847 83C34.2699 74.2424 48.8625 54.6818 49.8848 48.5" stroke="#4A5449"/>
<path d="M26.2847 71.5C33.1181 63.6667 47.2847 46.6 47.6847 43" stroke="#4A5449"/>
<path d="M25.9848 65C31.8181 58.8333 44.0848 43.9 45.2848 37.5" stroke="#4A5449"/>
<path d="M25.6847 59C31.5181 52.6667 43.1847 38.7 43.1847 33.5" stroke="#4A5449"/>
<path d="M25.2847 51.5C29.9514 46.1667 39.9847 34.3 40.7847 29.5" stroke="#4A5449"/>
<path d="M25.0847 36C28.2514 33.3333 34.8847 26.8 36.0847 22" stroke="#4A5449"/>
<path d="M24.8848 31C27.7181 27.5 33.2848 19.9 32.8848 17.5" stroke="#4A5449"/>
<path d="M25.2847 21C26.9514 19 30.1847 14.7 29.7847 13.5" stroke="#4A5449"/>
<path d="M18.2847 19C20.1181 21.5 24.4847 26.4 25.2847 26" stroke="#4A5449"/>
<path d="M15.2847 23C18.2847 26.6667 24.3847 34 24.7847 34" stroke="#4A5449"/>
<path d="M11.7847 28C15.6181 32.3333 23.6847 41 25.2847 41" stroke="#4A5449"/>
<path d="M4.78474 42.5C10.9514 50 23.8847 65 26.2847 65" stroke="#4A5449"/>
<path d="M2.28474 51C8.78474 58 22.6847 72.2 26.2847 73" stroke="#4A5449"/>
<path d="M1.28474 57C8.11808 63.6667 23.1847 77.5 26.7847 77.5" stroke="#4A5449"/>
<path d="M5.78474 93C13.4514 99 28.8847 111 29.2847 111" stroke="#4A5449"/>
<path d="M8.28474 99.5L29.7847 117.5" stroke="#4A5449"/>
<path d="M13.7347 111C19.0681 117.5 28.7347 128.1 30.7347 128.5" stroke="#4A5449"/>
<path d="M167.785 181.5C175.118 187.667 190.385 199.9 192.785 199.5" stroke="#4A5449"/>
<path d="M166.285 175C173.285 180.667 188.685 192.1 192.285 192.5" stroke="#4A5449"/>
<path d="M165.285 165.5C172.785 172.333 189.785 185 191.785 186" stroke="#4A5449"/>
<path d="M165.285 156.5C172.285 163.333 187.285 177.7 190.885 178.5" stroke="#4A5449"/>
<path d="M170.785 132.5L189.785 154" stroke="#4A5449"/>
<path d="M173.785 127L189.285 145.5" stroke="#4A5449"/>
<path d="M186.285 109.5C186.951 111.333 188.485 115.1 189.285 115.5" stroke="#4A5449"/>
<path d="M189.285 140.5C193.618 135.333 202.785 123.8 202.785 121" stroke="#4A5449"/>
<path d="M195.285 229C191.785 191.833 185.985 115.5 190.785 105.5" stroke="#4A5449"/>
<path d="M194.785 229.5C171.618 205 143.285 149.5 190.785 105C211.618 127.833 241.585 184.7 194.785 229.5Z" stroke="#4A5449"/>
<path d="M194.285 219C197.618 217 207.185 207.5 218.785 185.5" stroke="#4A5449"/>
<path d="M193.785 211.5C199.285 206.333 212.285 192.3 219.485 177.5" stroke="#4A5449"/>
<path d="M193.285 204.5C196.785 201 207.185 188.8 219.585 170" stroke="#4A5449"/>
<path d="M192.585 197C199.751 190.167 215.185 173.8 218.785 163" stroke="#4A5449"/>
<path d="M192.285 192C200.451 182.833 217.335 162.2 217.735 157" stroke="#4A5449"/>
<path d="M191.485 185C198.818 176.5 213.985 157.6 215.985 150" stroke="#4A5449"/>
<path d="M191.285 178C198.27 169.242 212.863 149.682 213.885 143.5" stroke="#4A5449"/>
<path d="M190.285 166.5C197.118 158.667 211.285 141.6 211.685 138" stroke="#4A5449"/>
<path d="M189.985 160C195.818 153.833 208.085 138.9 209.285 132.5" stroke="#4A5449"/>
<path d="M189.685 154C195.518 147.667 207.185 133.7 207.185 128.5" stroke="#4A5449"/>
<path d="M189.285 146.5C193.951 141.167 203.985 129.3 204.785 124.5" stroke="#4A5449"/>
<path d="M189.085 131C192.251 128.333 198.885 121.8 200.085 117" stroke="#4A5449"/>
<path d="M188.885 126C191.718 122.5 197.285 114.9 196.885 112.5" stroke="#4A5449"/>
<path d="M189.285 116C190.951 114 194.185 109.7 193.785 108.5" stroke="#4A5449"/>
<path d="M182.285 114C184.118 116.5 188.485 121.4 189.285 121" stroke="#4A5449"/>
<path d="M179.285 118C182.285 121.667 188.385 129 188.785 129" stroke="#4A5449"/>
<path d="M175.785 123C179.618 127.333 187.685 136 189.285 136" stroke="#4A5449"/>
<path d="M168.785 137.5C174.951 145 187.885 160 190.285 160" stroke="#4A5449"/>
<path d="M166.285 146C172.785 153 186.685 167.2 190.285 168" stroke="#4A5449"/>
<path d="M165.285 152C172.118 158.667 187.185 172.5 190.785 172.5" stroke="#4A5449"/>
<path d="M169.785 188C177.451 194 192.885 206 193.285 206" stroke="#4A5449"/>
<path d="M172.285 194.5L193.785 212.5" stroke="#4A5449"/>
<path d="M177.735 206C183.068 212.5 192.735 223.1 194.735 223.5" stroke="#4A5449"/>
<path d="M230.785 179.5C238.118 185.667 253.385 197.9 255.785 197.5" stroke="#4A5449"/>
<path d="M229.285 173C236.285 178.667 251.685 190.1 255.285 190.5" stroke="#4A5449"/>
<path d="M228.285 163.5C235.785 170.333 252.785 183 254.785 184" stroke="#4A5449"/>
<path d="M228.285 154.5C235.285 161.333 250.285 175.7 253.885 176.5" stroke="#4A5449"/>
<path d="M233.785 130.5L252.785 152" stroke="#4A5449"/>
<path d="M236.785 125L252.285 143.5" stroke="#4A5449"/>
<path d="M249.285 107.5C249.951 109.333 251.485 113.1 252.285 113.5" stroke="#4A5449"/>
<path d="M252.285 138.5C256.618 133.333 265.785 121.8 265.785 119" stroke="#4A5449"/>
<path d="M258.285 227C254.785 189.833 248.985 113.5 253.785 103.5" stroke="#4A5449"/>
<path d="M257.785 227.5C234.618 203 206.285 147.5 253.785 103C274.618 125.833 304.585 182.7 257.785 227.5Z" stroke="#4A5449"/>
<path d="M257.285 217C260.618 215 270.185 205.5 281.785 183.5" stroke="#4A5449"/>
<path d="M256.785 209.5C262.285 204.333 275.285 190.3 282.485 175.5" stroke="#4A5449"/>
<path d="M256.285 202.5C259.785 199 270.185 186.8 282.585 168" stroke="#4A5449"/>
<path d="M255.585 195C262.751 188.167 278.185 171.8 281.785 161" stroke="#4A5449"/>
<path d="M255.285 190C263.451 180.833 280.335 160.2 280.735 155" stroke="#4A5449"/>
<path d="M254.485 183C261.818 174.5 276.985 155.6 278.985 148" stroke="#4A5449"/>
<path d="M254.285 176C261.27 167.242 275.863 147.682 276.885 141.5" stroke="#4A5449"/>
<path d="M253.285 164.5C260.118 156.667 274.285 139.6 274.685 136" stroke="#4A5449"/>
<path d="M252.985 158C258.818 151.833 271.085 136.9 272.285 130.5" stroke="#4A5449"/>
<path d="M252.685 152C258.518 145.667 270.185 131.7 270.185 126.5" stroke="#4A5449"/>
<path d="M252.285 144.5C256.951 139.167 266.985 127.3 267.785 122.5" stroke="#4A5449"/>
<path d="M252.085 129C255.251 126.333 261.885 119.8 263.085 115" stroke="#4A5449"/>
<path d="M251.885 124C254.718 120.5 260.285 112.9 259.885 110.5" stroke="#4A5449"/>
<path d="M252.285 114C253.951 112 257.185 107.7 256.785 106.5" stroke="#4A5449"/>
<path d="M245.285 112C247.118 114.5 251.485 119.4 252.285 119" stroke="#4A5449"/>
<path d="M242.285 116C245.285 119.667 251.385 127 251.785 127" stroke="#4A5449"/>
<path d="M238.785 121C242.618 125.333 250.685 134 252.285 134" stroke="#4A5449"/>
<path d="M231.785 135.5C237.951 143 250.885 158 253.285 158" stroke="#4A5449"/>
<path d="M229.285 144C235.785 151 249.685 165.2 253.285 166" stroke="#4A5449"/>
<path d="M228.285 150C235.118 156.667 250.185 170.5 253.785 170.5" stroke="#4A5449"/>
<path d="M232.785 186C240.451 192 255.885 204 256.285 204" stroke="#4A5449"/>
<path d="M235.285 192.5L256.785 210.5" stroke="#4A5449"/>
<path d="M240.735 204C246.068 210.5 255.735 221.1 257.735 221.5" stroke="#4A5449"/>
<path d="M292.785 184.5C300.118 190.667 315.385 202.9 317.785 202.5" stroke="#4A5449"/>
<path d="M291.285 178C298.285 183.667 313.685 195.1 317.285 195.5" stroke="#4A5449"/>
<path d="M290.285 168.5C297.785 175.333 314.785 188 316.785 189" stroke="#4A5449"/>
<path d="M290.285 159.5C297.285 166.333 312.285 180.7 315.885 181.5" stroke="#4A5449"/>
<path d="M295.785 135.5L314.785 157" stroke="#4A5449"/>
<path d="M298.785 130L314.285 148.5" stroke="#4A5449"/>
<path d="M311.285 112.5C311.951 114.333 313.485 118.1 314.285 118.5" stroke="#4A5449"/>
<path d="M314.285 143.5C318.618 138.333 327.785 126.8 327.785 124" stroke="#4A5449"/>
<path d="M320.285 232C316.785 194.833 310.985 118.5 315.785 108.5" stroke="#4A5449"/>
<path d="M319.785 232.5C296.618 208 268.285 152.5 315.785 108C336.618 130.833 366.585 187.7 319.785 232.5Z" stroke="#4A5449"/>
<path d="M319.285 222C322.618 220 332.185 210.5 343.785 188.5" stroke="#4A5449"/>
<path d="M318.785 214.5C324.285 209.333 337.285 195.3 344.485 180.5" stroke="#4A5449"/>
<path d="M318.285 207.5C321.785 204 332.185 191.8 344.585 173" stroke="#4A5449"/>
<path d="M317.585 200C324.751 193.167 340.185 176.8 343.785 166" stroke="#4A5449"/>
<path d="M317.285 195C325.451 185.833 342.335 165.2 342.735 160" stroke="#4A5449"/>
<path d="M316.485 188C323.818 179.5 338.985 160.6 340.985 153" stroke="#4A5449"/>
<path d="M316.285 181C323.27 172.242 337.863 152.682 338.885 146.5" stroke="#4A5449"/>
<path d="M315.285 169.5C322.118 161.667 336.285 144.6 336.685 141" stroke="#4A5449"/>
<path d="M314.985 163C320.818 156.833 333.085 141.9 334.285 135.5" stroke="#4A5449"/>
<path d="M314.685 157C320.518 150.667 332.185 136.7 332.185 131.5" stroke="#4A5449"/>
<path d="M314.285 149.5C318.951 144.167 328.985 132.3 329.785 127.5" stroke="#4A5449"/>
<path d="M314.085 134C317.251 131.333 323.885 124.8 325.085 120" stroke="#4A5449"/>
<path d="M313.885 129C316.718 125.5 322.285 117.9 321.885 115.5" stroke="#4A5449"/>
<path d="M314.285 119C315.951 117 319.185 112.7 318.785 111.5" stroke="#4A5449"/>
<path d="M307.285 117C309.118 119.5 313.485 124.4 314.285 124" stroke="#4A5449"/>
<path d="M304.285 121C307.285 124.667 313.385 132 313.785 132" stroke="#4A5449"/>
<path d="M300.785 126C304.618 130.333 312.685 139 314.285 139" stroke="#4A5449"/>
<path d="M293.785 140.5C299.951 148 312.885 163 315.285 163" stroke="#4A5449"/>
<path d="M291.285 149C297.785 156 311.685 170.2 315.285 171" stroke="#4A5449"/>
<path d="M290.285 155C297.118 161.667 312.185 175.5 315.785 175.5" stroke="#4A5449"/>
<path d="M294.785 191C302.451 197 317.885 209 318.285 209" stroke="#4A5449"/>
<path d="M297.285 197.5L318.785 215.5" stroke="#4A5449"/>
<path d="M302.735 209C308.068 215.5 317.735 226.1 319.735 226.5" stroke="#4A5449"/>
<path d="M257.785 83.5C265.118 89.6667 280.385 101.9 282.785 101.5" stroke="#4A5449"/>
<path d="M256.285 77C263.285 82.6667 278.685 94.1 282.285 94.5" stroke="#4A5449"/>
<path d="M255.285 67.5C262.785 74.3333 279.785 87 281.785 88" stroke="#4A5449"/>
<path d="M255.285 58.5C262.285 65.3333 277.285 79.7 280.885 80.5" stroke="#4A5449"/>
<path d="M260.785 34.5L279.785 56" stroke="#4A5449"/>
<path d="M263.785 29L279.285 47.5" stroke="#4A5449"/>
<path d="M276.285 11.5C276.951 13.3333 278.485 17.1 279.285 17.5" stroke="#4A5449"/>
<path d="M279.285 42.5C283.618 37.3333 292.785 25.8 292.785 23" stroke="#4A5449"/>
<path d="M285.285 131C281.785 93.8333 275.985 17.5 280.785 7.5" stroke="#4A5449"/>
<path d="M284.785 131.5C261.618 107 233.285 51.5 280.785 7C301.618 29.8333 331.585 86.7 284.785 131.5Z" stroke="#4A5449"/>
<path d="M284.285 121C287.618 119 297.185 109.5 308.785 87.5" stroke="#4A5449"/>
<path d="M283.785 113.5C289.285 108.333 302.285 94.3 309.485 79.5" stroke="#4A5449"/>
<path d="M283.285 106.5C286.785 103 297.185 90.8 309.585 72" stroke="#4A5449"/>
<path d="M282.585 99C289.751 92.1667 305.185 75.8 308.785 65" stroke="#4A5449"/>
<path d="M282.285 94C290.451 84.8333 307.335 64.2 307.735 59" stroke="#4A5449"/>
<path d="M281.485 87C288.818 78.5 303.985 59.6 305.985 52" stroke="#4A5449"/>
<path d="M281.285 80C288.27 71.2424 302.863 51.6818 303.885 45.5" stroke="#4A5449"/>
<path d="M280.285 68.5C287.118 60.6667 301.285 43.6 301.685 40" stroke="#4A5449"/>
<path d="M279.985 62C285.818 55.8333 298.085 40.9 299.285 34.5" stroke="#4A5449"/>
<path d="M279.685 56C285.518 49.6667 297.185 35.7 297.185 30.5" stroke="#4A5449"/>
<path d="M279.285 48.5C283.951 43.1667 293.985 31.3 294.785 26.5" stroke="#4A5449"/>
<path d="M279.085 33C282.251 30.3333 288.885 23.8 290.085 19" stroke="#4A5449"/>
<path d="M278.885 28C281.718 24.5 287.285 16.9 286.885 14.5" stroke="#4A5449"/>
<path d="M279.285 18C280.951 16 284.185 11.7 283.785 10.5" stroke="#4A5449"/>
<path d="M272.285 16C274.118 18.5 278.485 23.4 279.285 23" stroke="#4A5449"/>
<path d="M269.285 20C272.285 23.6667 278.385 31 278.785 31" stroke="#4A5449"/>
<path d="M265.785 25C269.618 29.3333 277.685 38 279.285 38" stroke="#4A5449"/>
<path d="M258.785 39.5C264.951 47 277.885 62 280.285 62" stroke="#4A5449"/>
<path d="M256.285 48C262.785 55 276.685 69.2 280.285 70" stroke="#4A5449"/>
<path d="M255.285 54C262.118 60.6667 277.185 74.5 280.785 74.5" stroke="#4A5449"/>
<path d="M259.785 90C267.451 96 282.885 108 283.285 108" stroke="#4A5449"/>
<path d="M262.285 96.5L283.785 114.5" stroke="#4A5449"/>
<path d="M267.735 108C273.068 114.5 282.735 125.1 284.735 125.5" stroke="#4A5449"/>
<path d="M317.785 80.5C325.118 86.6667 340.385 98.9 342.785 98.5" stroke="#4A5449"/>
<path d="M316.285 74C323.285 79.6667 338.685 91.1 342.285 91.5" stroke="#4A5449"/>
<path d="M315.285 64.5C322.785 71.3333 339.785 84 341.785 85" stroke="#4A5449"/>
<path d="M315.285 55.5C322.285 62.3333 337.285 76.7 340.885 77.5" stroke="#4A5449"/>
<path d="M320.785 31.5L339.785 53" stroke="#4A5449"/>
<path d="M323.785 26L339.285 44.5" stroke="#4A5449"/>
<path d="M336.285 8.5C336.951 10.3333 338.485 14.1 339.285 14.5" stroke="#4A5449"/>
<path d="M339.285 39.5C343.618 34.3333 352.785 22.8 352.785 20" stroke="#4A5449"/>
<path d="M345.285 128C341.785 90.8333 335.985 14.5 340.785 4.5" stroke="#4A5449"/>
<path d="M344.785 128.5C321.618 104 293.285 48.5 340.785 4C361.618 26.8333 391.585 83.7 344.785 128.5Z" stroke="#4A5449"/>
<path d="M344.285 118C347.618 116 357.185 106.5 368.785 84.5" stroke="#4A5449"/>
<path d="M343.785 110.5C349.285 105.333 362.285 91.3 369.485 76.5" stroke="#4A5449"/>
<path d="M343.285 103.5C346.785 100 357.185 87.8 369.585 69" stroke="#4A5449"/>
<path d="M342.585 96C349.751 89.1667 365.185 72.8 368.785 62" stroke="#4A5449"/>
<path d="M342.285 91C350.451 81.8333 367.335 61.2 367.735 56" stroke="#4A5449"/>
<path d="M341.485 84C348.818 75.5 363.985 56.6 365.985 49" stroke="#4A5449"/>
<path d="M341.285 77C348.27 68.2424 362.863 48.6818 363.885 42.5" stroke="#4A5449"/>
<path d="M340.285 65.5C347.118 57.6667 361.285 40.6 361.685 37" stroke="#4A5449"/>
<path d="M339.985 59C345.818 52.8333 358.085 37.9 359.285 31.5" stroke="#4A5449"/>
<path d="M339.685 53C345.518 46.6667 357.185 32.7 357.185 27.5" stroke="#4A5449"/>
<path d="M339.285 45.5C343.951 40.1667 353.985 28.3 354.785 23.5" stroke="#4A5449"/>
<path d="M339.085 30C342.251 27.3333 348.885 20.8 350.085 16" stroke="#4A5449"/>
<path d="M338.885 25C341.718 21.5 347.285 13.9 346.885 11.5" stroke="#4A5449"/>
<path d="M339.285 15C340.951 13 344.185 8.7 343.785 7.5" stroke="#4A5449"/>
<path d="M332.285 13C334.118 15.5 338.485 20.4 339.285 20" stroke="#4A5449"/>
<path d="M329.285 17C332.285 20.6667 338.385 28 338.785 28" stroke="#4A5449"/>
<path d="M325.785 22C329.618 26.3333 337.685 35 339.285 35" stroke="#4A5449"/>
<path d="M318.785 36.5C324.951 44 337.885 59 340.285 59" stroke="#4A5449"/>
<path d="M316.285 45C322.785 52 336.685 66.2 340.285 67" stroke="#4A5449"/>
<path d="M315.285 51C322.118 57.6667 337.185 71.5 340.785 71.5" stroke="#4A5449"/>
<path d="M319.785 87C327.451 93 342.885 105 343.285 105" stroke="#4A5449"/>
<path d="M322.285 93.5L343.785 111.5" stroke="#4A5449"/>
<path d="M327.735 105C333.068 111.5 342.735 122.1 344.735 122.5" stroke="#4A5449"/>
<path d="M353.785 186.5C361.118 192.667 376.385 204.9 378.785 204.5" stroke="#4A5449"/>
<path d="M352.285 180C359.285 185.667 374.685 197.1 378.285 197.5" stroke="#4A5449"/>
<path d="M351.285 170.5C358.785 177.333 375.785 190 377.785 191" stroke="#4A5449"/>
<path d="M351.285 161.5C358.285 168.333 373.285 182.7 376.885 183.5" stroke="#4A5449"/>
<path d="M356.785 137.5L375.785 159" stroke="#4A5449"/>
<path d="M359.785 132L375.285 150.5" stroke="#4A5449"/>
<path d="M372.285 114.5C372.951 116.333 374.485 120.1 375.285 120.5" stroke="#4A5449"/>
<path d="M375.285 145.5C379.618 140.333 388.785 128.8 388.785 126" stroke="#4A5449"/>
<path d="M381.285 234C377.785 196.833 371.985 120.5 376.785 110.5" stroke="#4A5449"/>
<path d="M380.785 234.5C357.618 210 329.285 154.5 376.785 110C397.618 132.833 427.585 189.7 380.785 234.5Z" stroke="#4A5449"/>
<path d="M380.285 224C383.618 222 393.185 212.5 404.785 190.5" stroke="#4A5449"/>
<path d="M379.785 216.5C385.285 211.333 398.285 197.3 405.485 182.5" stroke="#4A5449"/>
<path d="M379.285 209.5C382.785 206 393.185 193.8 405.585 175" stroke="#4A5449"/>
<path d="M378.585 202C385.751 195.167 401.185 178.8 404.785 168" stroke="#4A5449"/>
<path d="M378.285 197C386.451 187.833 403.335 167.2 403.735 162" stroke="#4A5449"/>
<path d="M377.485 190C384.818 181.5 399.985 162.6 401.985 155" stroke="#4A5449"/>
<path d="M377.285 183C384.27 174.242 398.863 154.682 399.885 148.5" stroke="#4A5449"/>
<path d="M376.285 171.5C383.118 163.667 397.285 146.6 397.685 143" stroke="#4A5449"/>
<path d="M375.985 165C381.818 158.833 394.085 143.9 395.285 137.5" stroke="#4A5449"/>
<path d="M375.685 159C381.518 152.667 393.185 138.7 393.185 133.5" stroke="#4A5449"/>
<path d="M375.285 151.5C379.951 146.167 389.985 134.3 390.785 129.5" stroke="#4A5449"/>
<path d="M375.085 136C378.251 133.333 384.885 126.8 386.085 122" stroke="#4A5449"/>
<path d="M374.885 131C377.718 127.5 383.285 119.9 382.885 117.5" stroke="#4A5449"/>
<path d="M375.285 121C376.951 119 380.185 114.7 379.785 113.5" stroke="#4A5449"/>
<path d="M368.285 119C370.118 121.5 374.485 126.4 375.285 126" stroke="#4A5449"/>
<path d="M365.285 123C368.285 126.667 374.385 134 374.785 134" stroke="#4A5449"/>
<path d="M361.785 128C365.618 132.333 373.685 141 375.285 141" stroke="#4A5449"/>
<path d="M354.785 142.5C360.951 150 373.885 165 376.285 165" stroke="#4A5449"/>
<path d="M352.285 151C358.785 158 372.685 172.2 376.285 173" stroke="#4A5449"/>
<path d="M351.285 157C358.118 163.667 373.185 177.5 376.785 177.5" stroke="#4A5449"/>
<path d="M355.785 193C363.451 199 378.885 211 379.285 211" stroke="#4A5449"/>
<path d="M358.285 199.5L379.785 217.5" stroke="#4A5449"/>
<path d="M363.735 211C369.068 217.5 378.735 228.1 380.735 228.5" stroke="#4A5449"/>
<path d="M380.785 82.5C388.118 88.6667 403.385 100.9 405.785 100.5" stroke="#4A5449"/>
<path d="M379.285 76C386.285 81.6667 401.685 93.1 405.285 93.5" stroke="#4A5449"/>
<path d="M378.285 66.5C385.785 73.3333 402.785 86 404.785 87" stroke="#4A5449"/>
<path d="M378.285 57.5C385.285 64.3333 400.285 78.7 403.885 79.5" stroke="#4A5449"/>
<path d="M383.785 33.5L402.785 55" stroke="#4A5449"/>
<path d="M386.785 28L402.285 46.5" stroke="#4A5449"/>
<path d="M399.285 10.5C399.951 12.3333 401.485 16.1 402.285 16.5" stroke="#4A5449"/>
<path d="M402.285 41.5C406.618 36.3333 415.785 24.8 415.785 22" stroke="#4A5449"/>
<path d="M408.285 130C404.785 92.8333 398.985 16.5 403.785 6.5" stroke="#4A5449"/>
<path d="M407.785 130.5C384.618 106 356.285 50.5 403.785 6C424.618 28.8333 454.585 85.7 407.785 130.5Z" stroke="#4A5449"/>
<path d="M407.285 120C410.618 118 420.185 108.5 431.785 86.5" stroke="#4A5449"/>
<path d="M406.785 112.5C412.285 107.333 425.285 93.3 432.485 78.5" stroke="#4A5449"/>
<path d="M406.285 105.5C409.785 102 420.185 89.8 432.585 71" stroke="#4A5449"/>
<path d="M405.585 98C412.751 91.1667 428.185 74.8 431.785 64" stroke="#4A5449"/>
<path d="M405.285 93C413.451 83.8333 430.335 63.2 430.735 58" stroke="#4A5449"/>
<path d="M404.485 86C411.818 77.5 426.985 58.6 428.985 51" stroke="#4A5449"/>
<path d="M404.285 79C411.27 70.2424 425.863 50.6818 426.885 44.5" stroke="#4A5449"/>
<path d="M403.285 67.5C410.118 59.6667 424.285 42.6 424.685 39" stroke="#4A5449"/>
<path d="M402.985 61C408.818 54.8333 421.085 39.9 422.285 33.5" stroke="#4A5449"/>
<path d="M402.685 55C408.518 48.6667 420.185 34.7 420.185 29.5" stroke="#4A5449"/>
<path d="M402.285 47.5C406.951 42.1667 416.985 30.3 417.785 25.5" stroke="#4A5449"/>
<path d="M402.085 32C405.251 29.3333 411.885 22.8 413.085 18" stroke="#4A5449"/>
<path d="M401.885 27C404.718 23.5 410.285 15.9 409.885 13.5" stroke="#4A5449"/>
<path d="M402.285 17C403.951 15 407.185 10.7 406.785 9.5" stroke="#4A5449"/>
<path d="M395.285 15C397.118 17.5 401.485 22.4 402.285 22" stroke="#4A5449"/>
<path d="M392.285 19C395.285 22.6667 401.385 30 401.785 30" stroke="#4A5449"/>
<path d="M388.785 24C392.618 28.3333 400.685 37 402.285 37" stroke="#4A5449"/>
<path d="M381.785 38.5C387.951 46 400.885 61 403.285 61" stroke="#4A5449"/>
<path d="M379.285 47C385.785 54 399.685 68.2 403.285 69" stroke="#4A5449"/>
<path d="M378.285 53C385.118 59.6667 400.185 73.5 403.785 73.5" stroke="#4A5449"/>
<path d="M382.785 89C390.451 95 405.885 107 406.285 107" stroke="#4A5449"/>
<path d="M385.285 95.5L406.785 113.5" stroke="#4A5449"/>
<path d="M390.735 107C396.068 113.5 405.735 124.1 407.735 124.5" stroke="#4A5449"/>
<path d="M64.7847 77.5C72.1181 83.6667 87.3847 95.9 89.7847 95.5" stroke="#4A5449"/>
<path d="M63.2847 71C70.2847 76.6667 85.6847 88.1 89.2847 88.5" stroke="#4A5449"/>
<path d="M62.2847 61.5C69.7847 68.3333 86.7847 81 88.7847 82" stroke="#4A5449"/>
<path d="M62.2847 52.5C69.2847 59.3333 84.2848 73.7 87.8848 74.5" stroke="#4A5449"/>
<path d="M67.7847 28.5L86.7847 50" stroke="#4A5449"/>
<path d="M70.7847 23L86.2847 41.5" stroke="#4A5449"/>
<path d="M83.2847 5.5C83.9514 7.33333 85.4847 11.1 86.2847 11.5" stroke="#4A5449"/>
<path d="M86.2847 36.5C90.6181 31.3333 99.7847 19.8 99.7847 17" stroke="#4A5449"/>
<path d="M92.2847 125C88.7847 87.8333 82.9847 11.5 87.7847 1.5" stroke="#4A5449"/>
<path d="M91.7847 125.5C68.6181 101 40.2847 45.5 87.7847 1C108.618 23.8333 138.585 80.7 91.7847 125.5Z" stroke="#4A5449"/>
<path d="M91.2847 115C94.6181 113 104.185 103.5 115.785 81.5" stroke="#4A5449"/>
<path d="M90.7847 107.5C96.2847 102.333 109.285 88.3 116.485 73.5" stroke="#4A5449"/>
<path d="M90.2847 100.5C93.7847 97 104.185 84.8 116.585 66" stroke="#4A5449"/>
<path d="M89.5847 93C96.7514 86.1667 112.185 69.8 115.785 59" stroke="#4A5449"/>
<path d="M89.2847 88C97.4514 78.8333 114.335 58.2 114.735 53" stroke="#4A5449"/>
<path d="M88.4848 81C95.8181 72.5 110.985 53.6 112.985 46" stroke="#4A5449"/>
<path d="M88.2847 74C95.2699 65.2424 109.863 45.6818 110.885 39.5" stroke="#4A5449"/>
<path d="M87.2847 62.5C94.1181 54.6667 108.285 37.6 108.685 34" stroke="#4A5449"/>
<path d="M86.9848 56C92.8181 49.8333 105.085 34.9 106.285 28.5" stroke="#4A5449"/>
<path d="M86.6847 50C92.5181 43.6667 104.185 29.7 104.185 24.5" stroke="#4A5449"/>
<path d="M86.2847 42.5C90.9514 37.1667 100.985 25.3 101.785 20.5" stroke="#4A5449"/>
<path d="M86.0847 27C89.2514 24.3333 95.8847 17.8 97.0847 13" stroke="#4A5449"/>
<path d="M85.8848 22C88.7181 18.5 94.2848 10.9 93.8848 8.5" stroke="#4A5449"/>
<path d="M86.2847 12C87.9514 10 91.1847 5.7 90.7847 4.5" stroke="#4A5449"/>
<path d="M79.2847 10C81.1181 12.5 85.4847 17.4 86.2847 17" stroke="#4A5449"/>
<path d="M76.2847 14C79.2847 17.6667 85.3847 25 85.7847 25" stroke="#4A5449"/>
<path d="M72.7847 19C76.6181 23.3333 84.6847 32 86.2847 32" stroke="#4A5449"/>
<path d="M65.7847 33.5C71.9514 41 84.8847 56 87.2847 56" stroke="#4A5449"/>
<path d="M63.2847 42C69.7847 49 83.6847 63.2 87.2847 64" stroke="#4A5449"/>
<path d="M62.2847 48C69.1181 54.6667 84.1847 68.5 87.7847 68.5" stroke="#4A5449"/>
<path d="M66.7847 84C74.4514 90 89.8847 102 90.2847 102" stroke="#4A5449"/>
<path d="M69.2847 90.5L90.7847 108.5" stroke="#4A5449"/>
<path d="M74.7347 102C80.0681 108.5 89.7347 119.1 91.7347 119.5" stroke="#4A5449"/>
<path d="M191.785 81.5C199.118 87.6667 214.385 99.9 216.785 99.5" stroke="#4A5449"/>
<path d="M190.285 75C197.285 80.6667 212.685 92.1 216.285 92.5" stroke="#4A5449"/>
<path d="M189.285 65.5C196.785 72.3333 213.785 85 215.785 86" stroke="#4A5449"/>
<path d="M189.285 56.5C196.285 63.3333 211.285 77.7 214.885 78.5" stroke="#4A5449"/>
<path d="M194.785 32.5L213.785 54" stroke="#4A5449"/>
<path d="M197.785 27L213.285 45.5" stroke="#4A5449"/>
<path d="M210.285 9.5C210.951 11.3333 212.485 15.1 213.285 15.5" stroke="#4A5449"/>
<path d="M213.285 40.5C217.618 35.3333 226.785 23.8 226.785 21" stroke="#4A5449"/>
<path d="M219.285 129C215.785 91.8333 209.985 15.5 214.785 5.5" stroke="#4A5449"/>
<path d="M218.785 129.5C195.618 105 167.285 49.5 214.785 5C235.618 27.8333 265.585 84.7 218.785 129.5Z" stroke="#4A5449"/>
<path d="M218.285 119C221.618 117 231.185 107.5 242.785 85.5" stroke="#4A5449"/>
<path d="M217.785 111.5C223.285 106.333 236.285 92.3 243.485 77.5" stroke="#4A5449"/>
<path d="M217.285 104.5C220.785 101 231.185 88.8 243.585 70" stroke="#4A5449"/>
<path d="M216.585 97C223.751 90.1667 239.185 73.8 242.785 63" stroke="#4A5449"/>
<path d="M216.285 92C224.451 82.8333 241.335 62.2 241.735 57" stroke="#4A5449"/>
<path d="M215.485 85C222.818 76.5 237.985 57.6 239.985 50" stroke="#4A5449"/>
<path d="M215.285 78C222.27 69.2424 236.863 49.6818 237.885 43.5" stroke="#4A5449"/>
<path d="M214.285 66.5C221.118 58.6667 235.285 41.6 235.685 38" stroke="#4A5449"/>
<path d="M213.985 60C219.818 53.8333 232.085 38.9 233.285 32.5" stroke="#4A5449"/>
<path d="M213.685 54C219.518 47.6667 231.185 33.7 231.185 28.5" stroke="#4A5449"/>
<path d="M213.285 46.5C217.951 41.1667 227.985 29.3 228.785 24.5" stroke="#4A5449"/>
<path d="M213.085 31C216.251 28.3333 222.885 21.8 224.085 17" stroke="#4A5449"/>
<path d="M212.885 26C215.718 22.5 221.285 14.9 220.885 12.5" stroke="#4A5449"/>
<path d="M213.285 16C214.951 14 218.185 9.7 217.785 8.5" stroke="#4A5449"/>
<path d="M206.285 14C208.118 16.5 212.485 21.4 213.285 21" stroke="#4A5449"/>
<path d="M203.285 18C206.285 21.6667 212.385 29 212.785 29" stroke="#4A5449"/>
<path d="M199.785 23C203.618 27.3333 211.685 36 213.285 36" stroke="#4A5449"/>
<path d="M192.785 37.5C198.951 45 211.885 60 214.285 60" stroke="#4A5449"/>
<path d="M190.285 46C196.785 53 210.685 67.2 214.285 68" stroke="#4A5449"/>
<path d="M189.285 52C196.118 58.6667 211.185 72.5 214.785 72.5" stroke="#4A5449"/>
<path d="M193.785 88C201.451 94 216.885 106 217.285 106" stroke="#4A5449"/>
<path d="M196.285 94.5L217.785 112.5" stroke="#4A5449"/>
<path d="M201.735 106C207.068 112.5 216.735 123.1 218.735 123.5" stroke="#4A5449"/>
<path d="M130.785 77.5C138.118 83.6667 153.385 95.9 155.785 95.5" stroke="#4A5449"/>
<path d="M129.285 71C136.285 76.6667 151.685 88.1 155.285 88.5" stroke="#4A5449"/>
<path d="M128.285 61.5C135.785 68.3333 152.785 81 154.785 82" stroke="#4A5449"/>
<path d="M128.285 52.5C135.285 59.3333 150.285 73.7 153.885 74.5" stroke="#4A5449"/>
<path d="M133.785 28.5L152.785 50" stroke="#4A5449"/>
<path d="M136.785 23L152.285 41.5" stroke="#4A5449"/>
<path d="M149.285 5.5C149.951 7.33333 151.485 11.1 152.285 11.5" stroke="#4A5449"/>
<path d="M152.285 36.5C156.618 31.3333 165.785 19.8 165.785 17" stroke="#4A5449"/>
<path d="M158.285 125C154.785 87.8333 148.985 11.5 153.785 1.5" stroke="#4A5449"/>
<path d="M157.785 125.5C134.618 101 106.285 45.5 153.785 1C174.618 23.8333 204.585 80.7 157.785 125.5Z" stroke="#4A5449"/>
<path d="M157.285 115C160.618 113 170.185 103.5 181.785 81.5" stroke="#4A5449"/>
<path d="M156.785 107.5C162.285 102.333 175.285 88.3 182.485 73.5" stroke="#4A5449"/>
<path d="M156.285 100.5C159.785 97 170.185 84.8 182.585 66" stroke="#4A5449"/>
<path d="M155.585 93C162.751 86.1667 178.185 69.8 181.785 59" stroke="#4A5449"/>
<path d="M155.285 88C163.451 78.8333 180.335 58.2 180.735 53" stroke="#4A5449"/>
<path d="M154.485 81C161.818 72.5 176.985 53.6 178.985 46" stroke="#4A5449"/>
<path d="M154.285 74C161.27 65.2424 175.863 45.6818 176.885 39.5" stroke="#4A5449"/>
<path d="M153.285 62.5C160.118 54.6667 174.285 37.6 174.685 34" stroke="#4A5449"/>
<path d="M152.985 56C158.818 49.8333 171.085 34.9 172.285 28.5" stroke="#4A5449"/>
<path d="M152.685 50C158.518 43.6667 170.185 29.7 170.185 24.5" stroke="#4A5449"/>
<path d="M152.285 42.5C156.951 37.1667 166.985 25.3 167.785 20.5" stroke="#4A5449"/>
<path d="M152.085 27C155.251 24.3333 161.885 17.8 163.085 13" stroke="#4A5449"/>
<path d="M151.885 22C154.718 18.5 160.285 10.9 159.885 8.5" stroke="#4A5449"/>
<path d="M152.285 12C153.951 10 157.185 5.7 156.785 4.5" stroke="#4A5449"/>
<path d="M145.285 10C147.118 12.5 151.485 17.4 152.285 17" stroke="#4A5449"/>
<path d="M142.285 14C145.285 17.6667 151.385 25 151.785 25" stroke="#4A5449"/>
<path d="M138.785 19C142.618 23.3333 150.685 32 152.285 32" stroke="#4A5449"/>
<path d="M131.785 33.5C137.951 41 150.885 56 153.285 56" stroke="#4A5449"/>
<path d="M129.285 42C135.785 49 149.685 63.2 153.285 64" stroke="#4A5449"/>
<path d="M128.285 48C135.118 54.6667 150.185 68.5 153.785 68.5" stroke="#4A5449"/>
<path d="M132.785 84C140.451 90 155.885 102 156.285 102" stroke="#4A5449"/>
<path d="M135.285 90.5L156.785 108.5" stroke="#4A5449"/>
<path d="M140.735 102C146.068 108.5 155.735 119.1 157.735 119.5" stroke="#4A5449"/>
</svg>
